<svg xmlns="http://www.w3.org/2000/svg" viewBox="0 0 47.31 38.22"><defs><style>.cls-1{fill:none;stroke:#fd2f05;stroke-miterlimit:22.93;stroke-width:2.13px;fill-rule:evenodd;}</style></defs><title>Recurso 6</title><g id="Capa_2" data-name="Capa 2"><g id="Layer_1" data-name="Layer 1"><path class="cls-1" d="M5.53,7.74H11a2.22,2.22,0,0,0,2.16-1.59L14,3A2.68,2.68,0,0,1,16.4,1.06H30.91A2.69,2.69,0,0,1,33.33,3l.85,3.18a2.21,2.21,0,0,0,2.16,1.59h5.44a4.48,4.48,0,0,1,4.46,4.47V32.69a4.48,4.48,0,0,1-4.46,4.47H5.53a4.48,4.48,0,0,1-4.47-4.47V12.21A4.48,4.48,0,0,1,5.53,7.74Z"/><path class="cls-1" d="M23.65,29a7.83,7.83,0,1,0-7.83-7.83A7.84,7.84,0,0,0,23.65,29Z"/></g></g></svg>