<svg xmlns="http://www.w3.org/2000/svg" viewBox="0 0 121.17 26.89"><defs><style>.cls-1{fill:#fff;fill-rule:evenodd;}</style></defs><title>Recurso 11</title><g id="Capa_2" data-name="Capa 2"><g id="Layer_1" data-name="Layer 1"><path class="cls-1" d="M28.77,10.76a8.31,8.31,0,0,1,4.58,2.67A7.05,7.05,0,0,1,35,18.07a8,8,0,0,1-1.27,4.32,9.07,9.07,0,0,1-3.91,3.25,15.45,15.45,0,0,1-6.58,1.25,25.56,25.56,0,0,1-5.42-.59,17.15,17.15,0,0,1-4.72-1.72L16,18.18a13.38,13.38,0,0,0,3.4,1.4,13.71,13.71,0,0,0,3.51.48,4.85,4.85,0,0,0,2.42-.52,1.61,1.61,0,0,0,.92-1.47c0-1.17-1-1.76-3-1.76H19.77V11l3.79-3.85H14.38V.59H33.55V5.91Z"/><polygon class="cls-1" points="42.92 26.3 38.8 26.3 38.8 0.59 42.92 0.59 42.92 15.06 50.85 6.76 56.14 6.76 48.72 14.51 56.69 26.3 51.7 26.3 45.89 17.74 42.92 20.75 42.92 26.3"/><path class="cls-1" d="M4.17,14.8a45.49,45.49,0,0,0,1.91-4.15A8.54,8.54,0,0,0,6.65,7.6,5.23,5.23,0,0,0,6,5,1.77,1.77,0,0,0,4.51,3.89c-1.09,0-2,1.08-2.71,3.24L0,5.11A12.48,12.48,0,0,1,1.92,1.29,3.34,3.34,0,0,1,4.63,0,3.5,3.5,0,0,1,7.54,2,10.63,10.63,0,0,1,8.79,7.6a13.45,13.45,0,0,1-.53,3.79A29.06,29.06,0,0,1,6.31,16L3.2,22.15h6V26.3H.15V22.63Z"/><polygon class="cls-1" points="95.6 15.89 95.6 11.19 110.21 11.18 110.21 15.89 121.17 15.88 121.17 19.82 110.21 19.82 110.21 26.29 95.6 26.3 95.6 19.83 56.47 19.85 56.47 16.03 89.99 0.6 106.82 0.59 73.81 15.91 95.6 15.89"/></g></g></svg>