<svg xmlns="http://www.w3.org/2000/svg" viewBox="0 0 122.46 51.77"><defs><style>.cls-1{fill:#adcfff;fill-rule:evenodd;}</style></defs><title>Recurso 2</title><g id="Capa_2" data-name="Capa 2"><g id="Layer_1" data-name="Layer 1"><path class="cls-1" d="M58.3,6.3H57.16V9.5h-.69V6.3H55.32V5.71h3V6.3Zm.93-.65h-.11V9.5h.69V7.11L61,8.53h.14l1.17-1.42V9.5H63V5.65H62.9L61.07,7.7Z"/><path class="cls-1" d="M17.43,16.81a16.84,16.84,0,0,1,12.35,5.11,16.63,16.63,0,0,1,5.11,12.32v16H21.66V34.5a8.9,8.9,0,0,0-1.24-4.78,3.53,3.53,0,0,0-3-2,3.51,3.51,0,0,0-3,2,8.9,8.9,0,0,0-1.24,4.78V50.27H0v-16A16.63,16.63,0,0,1,5.11,21.92,16.68,16.68,0,0,1,17.43,16.81Z"/><path class="cls-1" d="M47.63,14.18c-1.41,1.39-2.13,2.42-2.18,3.09v.06c0,.7.62,1.65,1.86,2.87l1.46,1.46a6.52,6.52,0,0,1,1.95,4.75V50.27H37.36V26.4a6.45,6.45,0,0,1,2-4.74l1.49-1.47C42,19,42.62,18,42.62,17.3v-.07c-.06-.65-.79-1.66-2.18-3.05l-1.59-1.63a7,7,0,0,1-2.18-5.2,6.93,6.93,0,0,1,2.18-5.17A6.93,6.93,0,0,1,44,0a7,7,0,0,1,5.2,2.15,7,7,0,0,1,2.18,5.2,6.93,6.93,0,0,1-2.18,5.2Z"/><path class="cls-1" d="M72.84,39.87A10.86,10.86,0,0,0,74,36h13.2a16.51,16.51,0,0,1-5,10.67v0A16.65,16.65,0,0,1,70,51.77h-.16a16.67,16.67,0,0,1-12.26-5.11v0A16.57,16.57,0,0,1,52.42,34.4v-.16A16.57,16.57,0,0,1,57.53,22a17.44,17.44,0,0,1,24.65,0,16.63,16.63,0,0,1,5,10.67H74a10.75,10.75,0,0,0-1.14-3.9c-.84-1.52-1.84-2.28-3-2.28s-2.13.76-3,2.28a11.68,11.68,0,0,0-1.23,5.56,11.64,11.64,0,0,0,1.23,5.53c.83,1.51,1.81,2.28,3,2.3S72,41.38,72.84,39.87Z"/><path class="cls-1" d="M114.92,35.7,121.62,46a4.23,4.23,0,0,1,.84,2.27,2.13,2.13,0,0,1-.13.78,1.85,1.85,0,0,1-2,1.27H109.46l-6.9-10.57V50.24H89.33V23.41a6.62,6.62,0,0,1,13.23,0v7.16l6-10.7a6.39,6.39,0,0,1,4.06-3.06,7,7,0,0,1,1.73-.23,6.5,6.5,0,0,1,3.28.91,6.79,6.79,0,0,1,3.28,5.79,6.25,6.25,0,0,1-.94,3.29Z"/></g></g></svg>