<svg xmlns="http://www.w3.org/2000/svg" viewBox="0 0 114.68 30.99"><defs><style>.cls-1{fill:#adcfff;fill-rule:evenodd;}</style></defs><title>Recurso 4</title><g id="Capa_2" data-name="Capa 2"><g id="Layer_1" data-name="Layer 1"><path class="cls-1" d="M15.77,29c-1.73.3-3.48.39-5.3.63L4.93,13.41V30.33c-1.72.18-3.3.42-4.93.66V0H4.6l6.3,17.59V0h4.87V29ZM25.3,11.35c1.88,0,4.75-.09,6.48-.09V16.1c-2.15,0-4.66,0-6.48.09V23.4c2.85-.19,5.69-.43,8.57-.52v4.66L20.46,28.6V0H33.87V4.84H25.3v6.51ZM51.88,4.84h-5V27.12c-1.63,0-3.27,0-4.84.06V4.84H37V0H51.88V4.84ZM59.75,11h6.62v4.84H59.75v11H55V0H68.52V4.84H59.75V11ZM76.39,22.61c2.76.06,5.54.27,8.24.42v4.78c-4.33-.27-8.66-.54-13.08-.63V0h4.84V22.61Zm12.32,5.54c1.55.09,3.18.18,4.75.36V0H88.71V28.15ZM114.68,0l-6.14,14.74L114.68,31c-1.82-.24-3.63-.57-5.45-.87l-3.48-9-3.54,8.23c-1.75-.3-3.45-.39-5.2-.64l6.23-14.19L97.61,0h5.21L106,8.14,109.38,0Z"/></g></g></svg>