<svg xmlns="http://www.w3.org/2000/svg" viewBox="0 0 120.92 43.13"><defs><style>.cls-1,.cls-2{fill:#adcfff;}.cls-1{fill-rule:evenodd;}</style></defs><title>Recurso 1</title><g id="Capa_2" data-name="Capa 2"><g id="Layer_1" data-name="Layer 1"><path class="cls-1" d="M62.18,8.7c0,1.46-1.82,1.37-1.82,1.37H58.54V7.43h1.82c1.87,0,1.82,1.27,1.82,1.27ZM58.54,3.4h1.39c1.44.08,1.38,1.15,1.38,1.15,0,1.33-1.59,1.35-1.59,1.35H58.54V3.4Zm3.3,3a2.15,2.15,0,0,0,1.24-1.94s.19-2.3-2.87-2.58H56.82v9.67h3.89S64,11.58,64,8.84a2.51,2.51,0,0,0-2.11-2.42ZM53.06,0V13.46H67.35V0Z"/><path class="cls-1" d="M45.71,8.7c0,1.46-1.82,1.37-1.82,1.37H42.07V7.43h1.82c1.87,0,1.82,1.27,1.82,1.27ZM42.07,3.4h1.38c1.45.08,1.39,1.15,1.39,1.15,0,1.33-1.59,1.35-1.59,1.35H42.07V3.4Zm3.3,3a2.15,2.15,0,0,0,1.24-1.94s.19-2.3-2.87-2.58H40.35v9.67h3.88s3.25,0,3.25-2.73a2.51,2.51,0,0,0-2.11-2.42ZM36.59,0V13.46H50.87V0Z"/><path class="cls-1" d="M80.9,2.59V4.38a8.07,8.07,0,0,0-3.67-1.1s-3.6-.07-3.76,3.45c0,0-.13,3.24,3.72,3.42A6.28,6.28,0,0,0,81,9V10.8a7.74,7.74,0,0,1-6.34.4,4.89,4.89,0,0,1-3-4.47A4.92,4.92,0,0,1,75.38,2a6.89,6.89,0,0,1,2.85-.22,10.4,10.4,0,0,1,2.67.77ZM69.53,13.46H83.82V0H69.53Z"/><path class="cls-1" d="M6.28,34,4,32.65A10.5,10.5,0,0,1,.91,30.06,4.91,4.91,0,0,1,0,27.12a5.21,5.21,0,0,1,1.73-4.05,6.44,6.44,0,0,1,4.49-1.56A8.55,8.55,0,0,1,11.07,23v3.43a7,7,0,0,0-4.91-2.19,4.06,4.06,0,0,0-2.43.69,2.11,2.11,0,0,0-1,1.76,2.72,2.72,0,0,0,.69,1.78A8.51,8.51,0,0,0,5.73,30.2L8,31.56q3.86,2.3,3.86,5.86a5.38,5.38,0,0,1-1.7,4.13,6.22,6.22,0,0,1-4.41,1.58,9.29,9.29,0,0,1-5.7-1.92V37.38a7.12,7.12,0,0,0,5.67,3.09,3.54,3.54,0,0,0,2.36-.79,2.49,2.49,0,0,0,.94-2c0-1.29-.92-2.5-2.78-3.65Z"/><polygon class="cls-1" points="13.08 21.76 30.71 21.76 30.71 24.45 23.35 24.45 23.35 42.89 20.31 42.89 20.31 24.45 13.08 24.45 13.08 21.76"/><path class="cls-1" d="M47.91,21.79h3v12a14.06,14.06,0,0,1-.36,3.67,7.74,7.74,0,0,1-.87,2.06A6.39,6.39,0,0,1,48.44,41a9.69,9.69,0,0,1-6.55,2.16A9.79,9.79,0,0,1,35.27,41,7.22,7.22,0,0,1,34,39.5a8.07,8.07,0,0,1-.86-2,15.16,15.16,0,0,1-.34-3.74v-12h3v12a8.75,8.75,0,0,0,.68,4.13,4.8,4.8,0,0,0,2.07,1.87,7.15,7.15,0,0,0,3.28.7,6.67,6.67,0,0,0,4.38-1.4,4.43,4.43,0,0,0,1.28-1.78,11.07,11.07,0,0,0,.39-3.52Z"/><path class="cls-1" d="M54.75,42.86V21.79h7.12a15,15,0,0,1,6.81,1.29,9.78,9.78,0,0,1,4,3.8,10.62,10.62,0,0,1,1.48,5.47,10.31,10.31,0,0,1-.82,4,10.45,10.45,0,0,1-5.91,5.68,9.71,9.71,0,0,1-2.19.63,28.33,28.33,0,0,1-3.8.16Zm6.8-18.38H57.77V40.17h3.87a15.29,15.29,0,0,0,3.52-.31,8.81,8.81,0,0,0,2.09-.78,7,7,0,0,0,1.53-1.18A7.8,7.8,0,0,0,71,32.18a7.23,7.23,0,0,0-2.3-5.54,7.08,7.08,0,0,0-1.94-1.32,8.19,8.19,0,0,0-2.07-.68,21.54,21.54,0,0,0-3.16-.16Z"/><rect class="cls-2" x="77.51" y="21.79" width="3.02" height="21.1"/><path class="cls-1" d="M95.26,21.48a11.39,11.39,0,0,1,8.15,3.1,10.27,10.27,0,0,1,3.25,7.77,10.09,10.09,0,0,1-3.28,7.72,11.68,11.68,0,0,1-8.29,3.06,11,11,0,0,1-8-3.06A10.18,10.18,0,0,1,84,32.41a10.45,10.45,0,0,1,3.2-7.83,11.22,11.22,0,0,1,8.1-3.1Zm.12,2.87a8.21,8.21,0,0,0-6,2.27,7.7,7.7,0,0,0-2.33,5.79,7.59,7.59,0,0,0,2.34,5.68A8.71,8.71,0,0,0,101.19,38a7.74,7.74,0,0,0,2.36-5.75,7.58,7.58,0,0,0-2.36-5.65A8.06,8.06,0,0,0,95.38,24.35Z"/><path class="cls-1" d="M115.3,34,113,32.65a10.5,10.5,0,0,1-3.08-2.59,4.91,4.91,0,0,1-.91-2.94,5.21,5.21,0,0,1,1.73-4.05,6.44,6.44,0,0,1,4.49-1.56A8.55,8.55,0,0,1,120.09,23v3.43a7,7,0,0,0-4.91-2.19,4.06,4.06,0,0,0-2.43.69,2.11,2.11,0,0,0-1,1.76,2.72,2.72,0,0,0,.69,1.78,8.51,8.51,0,0,0,2.26,1.74l2.31,1.36q3.85,2.3,3.86,5.86a5.38,5.38,0,0,1-1.7,4.13,6.22,6.22,0,0,1-4.41,1.58,9.29,9.29,0,0,1-5.7-1.92V37.38a7.12,7.12,0,0,0,5.67,3.09,3.54,3.54,0,0,0,2.36-.79,2.49,2.49,0,0,0,.94-2c0-1.29-.92-2.5-2.78-3.65Z"/></g></g></svg>