<svg xmlns="http://www.w3.org/2000/svg" viewBox="0 0 134.46 34.12"><defs><style>.cls-1{fill:#adcfff;fill-rule:evenodd;}</style></defs><title>Recurso 3</title><g id="Capa_2" data-name="Capa 2"><g id="Layer_1" data-name="Layer 1"><path class="cls-1" d="M0,32.46l1.84-1.85a2.08,2.08,0,0,0,.68-1.52V0H3L25,19.87V5.26a2.12,2.12,0,0,0-.68-1.53L22.48,1.89V1.44H34.12v.45L32.28,3.73a2.12,2.12,0,0,0-.68,1.53V34.12h-.45l-22-19.91V29.09a2.07,2.07,0,0,0,.67,1.52l1.84,1.85v.45H0Z"/><path class="cls-1" d="M37.36,32.46l1.84-1.85a2.07,2.07,0,0,0,.67-1.52V5.26a2.1,2.1,0,0,0-.67-1.53L37.36,1.89V1.44H55.92q4.86,0,7.44,2.2A7.29,7.29,0,0,1,66,9.49q0,5.48-5.67,6.87v.09q7,1.22,7,7.69a7.59,7.59,0,0,1-3,6.54c-2,1.49-4.85,2.23-8.48,2.23H37.36v-.45ZM55,13.89q3.82,0,3.82-3.33a3.37,3.37,0,0,0-1-2.51A4,4,0,0,0,55,7.1h-8v6.79Zm-.13,13.26q5.09,0,5.08-4c0-2.52-1.69-3.77-5.08-3.77H47.07v7.77Z"/><path class="cls-1" d="M75.88,29.11q-4.68-4.42-4.67-11.85T75.93,5.35A16.7,16.7,0,0,1,87.88.9a33.76,33.76,0,0,1,4,.29c1.56.2,2.53.29,2.92.29A5,5,0,0,0,97.91.36l.45.18-2.7,10.65-.49-.13a5.59,5.59,0,0,0-2.23-3,7.66,7.66,0,0,0-4.61-1.26,8.88,8.88,0,0,0-6.76,2.86,10.7,10.7,0,0,0-2.68,7.62,10.87,10.87,0,0,0,2.52,7.48A8.37,8.37,0,0,0,88,27.65a8.83,8.83,0,0,0,7.51-3.73l4.22,4.9q-4.4,4.71-12,4.72A16.58,16.58,0,0,1,75.88,29.11Z"/><path class="cls-1" d="M108.56,30.21q-3.68-3.33-3.68-9.67V5.26a2.12,2.12,0,0,0-.68-1.53l-1.84-1.84V1.44H114.5v.45l-1.85,1.84A2.1,2.1,0,0,0,112,5.26V20.72a7.08,7.08,0,0,0,1.66,5.13,6.36,6.36,0,0,0,4.77,1.71,6.19,6.19,0,0,0,4.7-1.73,7.2,7.2,0,0,0,1.64-5.11V5.26a2.12,2.12,0,0,0-.68-1.53l-1.84-1.84V1.44h12.23v.45l-1.85,1.84a2.1,2.1,0,0,0-.67,1.53V20.54q0,6.34-3.71,9.67t-9.82,3.33Q112.25,33.54,108.56,30.21Z"/></g></g></svg>