<svg xmlns="http://www.w3.org/2000/svg" viewBox="0 0 31.21 31.21"><defs><style>.cls-1{fill:#fff;}.cls-2{fill:#1a1a1a;fill-rule:evenodd;}</style></defs><title>Recurso 12</title><g id="Capa_2" data-name="Capa 2"><g id="Layer_1" data-name="Layer 1"><circle class="cls-1" cx="15.6" cy="15.6" r="15.6"/><path class="cls-2" d="M7.19,13.41C6.06,12,5.65,10.36,6.35,9.88c.54-.37,8.66-7.45,9.1-5,.15.79,1.68-.22,3.11-.69s.87,1.46,1.53,1.88c.47.29,2.8-1.16,3.37,0,.38.73-.78,2.32-.43,3.13.22.5,1.39.28,1.95.59,1.35.75-2.36,4.14-1.33,6.52C25,19.32,22.34,22,20.24,22.63a3,3,0,0,0,1,1.17.78.78,0,0,1,.06,1.07c-.26.39-.8.58-1.45,0a3.94,3.94,0,0,1-1.52-2.37c-.35-.05-.67-.12-.71-.13h0a3,3,0,0,1-.78-.26A2.26,2.26,0,0,1,15.77,21a1.9,1.9,0,0,1,0-1.55,2.32,2.32,0,0,1,1.41-1.13,3.21,3.21,0,0,0,2-2,5.75,5.75,0,0,0,.4-1.94,3.09,3.09,0,0,0,0-.66l-.17.06a4.41,4.41,0,0,0-1.05.71,8.26,8.26,0,0,0-2.08,2.42c-.18.29-.37.61-.7,1.09a2.45,2.45,0,0,1-.44.51,1.35,1.35,0,0,1-.8.35,2,2,0,0,1-.81-.09,1.74,1.74,0,0,1-.54-.33,1.21,1.21,0,0,1-.36-.74,1.32,1.32,0,0,1,0-.34,4.12,4.12,0,0,0-.65-.68,6.63,6.63,0,0,0-2.12-1.24,4.92,4.92,0,0,0-1-.26c0,.25,0,.49,0,.74,0,1.38,0,2.64-.93,3.46a2.67,2.67,0,0,0,.51.31,1.64,1.64,0,0,1,.74.55c.37.56.31,1-.43,1.54a.52.52,0,0,0,.1.2,2.2,2.2,0,0,0,.6.56,1.82,1.82,0,0,1,.7,1c.07.18.15.39.37.45a4,4,0,0,0,1-.07,5.66,5.66,0,0,1,3.34.26,1.59,1.59,0,0,1,1,2.12c-.33,1.16-2.23,1.06-1.83-.12.08-.23.11-.39,0-.44a4.54,4.54,0,0,0-2.31-.07,4.52,4.52,0,0,1-1.76,0,2.1,2.1,0,0,1-1.52-1.51c0-.1,0-.14,0-.17a3.91,3.91,0,0,1-1.09-1,2.29,2.29,0,0,1-.39-1.08A1.72,1.72,0,0,1,7.12,21a3,3,0,0,1-.5-.39A2,2,0,0,1,6,19.48a1.3,1.3,0,0,1,.68-1.38c.42-.28.42-1.2.42-2.21a15,15,0,0,1,.06-1.77l.08-.71Zm3.13,4.78a.79.79,0,0,0-1,1.22,2.06,2.06,0,0,0,1.34.51A2.44,2.44,0,0,0,12,19.51a.79.79,0,1,0-.82-1.35,1,1,0,0,1-.52.18.54.54,0,0,1-.34-.15Zm.61-4.67c.35.55,1.85-.65,1.33-1.2-.28-.29-1.8-1.91-1.88-1.77C9.88,11.4,10.31,12.58,10.93,13.52Z"/></g></g></svg>