<svg xmlns="http://www.w3.org/2000/svg" viewBox="0 0 202.7 168.34"><defs><style>.cls-1{fill:#fff;stroke:#fd2f05;stroke-width:1.13px;}.cls-1,.cls-19,.cls-20{stroke-linecap:round;stroke-linejoin:round;}.cls-1,.cls-18,.cls-19,.cls-21{fill-rule:evenodd;}.cls-2{font-size:18.22px;font-family:Montserrat-ExtraBold, Montserrat ExtraBold;font-weight:800;}.cls-10,.cls-18,.cls-2{fill:#fa321e;}.cls-3{letter-spacing:-0.08em;}.cls-4{letter-spacing:-0.01em;}.cls-5{letter-spacing:0em;}.cls-6{letter-spacing:-0.02em;}.cls-7{letter-spacing:-0.01em;}.cls-8{letter-spacing:0em;}.cls-9{letter-spacing:-0.01em;}.cls-10{font-size:12.09px;font-family:Montserrat-Medium, Montserrat Medium;font-weight:500;}.cls-11{letter-spacing:-0.03em;}.cls-12{letter-spacing:0em;}.cls-13{letter-spacing:-0.01em;}.cls-14{letter-spacing:0.01em;}.cls-15{letter-spacing:-0.08em;}.cls-16{letter-spacing:0.01em;}.cls-17{letter-spacing:0.01em;}.cls-19,.cls-20,.cls-21,.cls-22{fill:none;stroke:#fa321e;stroke-width:0.89px;}.cls-21,.cls-22{stroke-miterlimit:22.93;}</style></defs><title>Recurso 4</title><g id="Capa_2" data-name="Capa 2"><g id="Layer_1" data-name="Layer 1"><path class="cls-1" d="M189,167.77H13.69A13.15,13.15,0,0,1,.57,154.65V60.4h0V13.69A13.15,13.15,0,0,1,13.69.57H189a13.16,13.16,0,0,1,13.12,13.12V60.4h0v94.25A13.16,13.16,0,0,1,189,167.77Z"/><text class="cls-2" transform="translate(30.91 40.91)"><tspan class="cls-3">Y</tspan><tspan x="8.47" y="0">our Di</tspan><tspan class="cls-4" x="54.74" y="0">g</tspan><tspan class="cls-5" x="64.82" y="0">ital</tspan><tspan class="cls-6"><tspan x="0" y="15.54">P</tspan><tspan class="cls-7" x="9.4" y="15.54">r</tspan><tspan class="cls-8" x="15.18" y="15.54">esen</tspan><tspan class="cls-9" x="50.77" y="15.54">c</tspan><tspan class="cls-8" x="58.83" y="15.54">e</tspan></tspan></text><text class="cls-10" transform="translate(49.58 83.52)"><tspan class="cls-11">W</tspan><tspan class="cls-12" x="9.83" y="0">ebsi</tspan><tspan class="cls-13" x="30.39" y="0">t</tspan><tspan x="34.32" y="0">e</tspan><tspan class="cls-14" x="0" y="13.61">G</tspan><tspan x="7.87" y="13.61">oogle</tspan><tspan class="cls-15"><tspan x="0" y="27.22">Y</tspan><tspan class="cls-12" x="5.62" y="27.22">elp</tspan></tspan><tspan x="0" y="40.83">Email Lists</tspan><tspan class="cls-16" x="0" y="54.44">S</tspan><tspan x="6.04" y="54.44">ocial </tspan><tspan class="cls-17" x="32.17" y="54.44">M</tspan><tspan class="cls-12" x="41.97" y="54.44">edia</tspan></text><path class="cls-18" d="M33.42,105.33l1.89.92a.43.43,0,0,1-.09.81l-2,.51a.43.43,0,0,1-.53-.37,3.67,3.67,0,0,1,.17-1.62A.43.43,0,0,1,33.42,105.33Z"/><path class="cls-18" d="M34.18,109.22l1.4-1.56a.44.44,0,0,1,.76.3l-.08,2.11a.43.43,0,0,1-.5.41,3.76,3.76,0,0,1-1.51-.61A.44.44,0,0,1,34.18,109.22Z"/><path class="cls-18" d="M37.51,107.14l2,.65a.44.44,0,0,1,.26.6,3.65,3.65,0,0,1-1,1.28.43.43,0,0,1-.64-.1L37,107.78A.43.43,0,0,1,37.51,107.14Z"/><path class="cls-18" d="M39.55,105.87l-2,.58a.43.43,0,0,1-.47-.66L38.22,104a.44.44,0,0,1,.65-.08,3.64,3.64,0,0,1,1,1.32A.43.43,0,0,1,39.55,105.87Z"/><path class="cls-18" d="M34.82,101a6.14,6.14,0,0,0-1,.38.44.44,0,0,0-.19.61l2,3.42a.43.43,0,0,0,.81-.21v-4a.43.43,0,0,0-.47-.43A6.08,6.08,0,0,0,34.82,101Z"/><path class="cls-19" d="M32.71,77.67l1.92-1.12a1.82,1.82,0,0,1,2.46.66h0a1.8,1.8,0,0,1-.66,2.45L34.5,80.78a1.81,1.81,0,0,1-2.45-.66h0A1.8,1.8,0,0,1,32.71,77.67Z"/><path class="cls-19" d="M36.05,75.73,38,74.62a1.8,1.8,0,0,1,2.45.66h0a1.79,1.79,0,0,1-.65,2.45l-1.93,1.11a1.79,1.79,0,0,1-2.45-.65h0A1.81,1.81,0,0,1,36.05,75.73Z"/><line class="cls-20" x1="36.52" y1="91.79" x2="39.5" y2="91.79"/><path class="cls-19" d="M39.5,91.79a3.26,3.26,0,1,1-3.26-3.26,3.31,3.31,0,0,1,2,.69"/><polyline class="cls-21" points="38.9 131.32 33.59 133.88 38.9 136.47"/><path class="cls-18" d="M38.9,137.88a1.41,1.41,0,1,0-1.41-1.41A1.41,1.41,0,0,0,38.9,137.88Z"/><path class="cls-18" d="M38.9,132.73a1.41,1.41,0,1,0-1.41-1.41A1.42,1.42,0,0,0,38.9,132.73Z"/><path class="cls-18" d="M33.58,135.29a1.41,1.41,0,1,0-1.4-1.41A1.41,1.41,0,0,0,33.58,135.29Z"/><rect class="cls-22" x="32.56" y="117.5" width="7.36" height="5.45" rx="0.63"/><path class="cls-21" d="M39.77,117.73l-2.72,2.72a1.15,1.15,0,0,1-1.61,0l-2.73-2.72"/></g></g></svg>