<svg xmlns="http://www.w3.org/2000/svg" viewBox="0 0 1021.57 499.25"><defs><style>.cls-1,.cls-2,.cls-3,.cls-6,.cls-7{fill:none;}.cls-1,.cls-6{stroke:#c51401;}.cls-1,.cls-2,.cls-3,.cls-5,.cls-6,.cls-7{stroke-linecap:round;stroke-linejoin:round;stroke-width:1.42px;}.cls-1,.cls-2,.cls-4,.cls-5,.cls-7{fill-rule:evenodd;}.cls-2,.cls-3,.cls-5{stroke:#fff;}.cls-4{fill:#c51401;}.cls-5{fill:#fd2f05;}.cls-7{stroke:#fefefe;}</style></defs><title>Recurso 2</title><g id="Capa_2" data-name="Capa 2"><g id="Layer_1" data-name="Layer 1"><path class="cls-1" d="M1014.72,164H905.57m-92.24,0H753.26M643,164H507.49a4.54,4.54,0,0,1-4.52-4.53v-5.25a4.54,4.54,0,0,1,4.52-4.53H646m105.15,0h263.56"/><path class="cls-2" d="M35.76,290.47H26.12v18.08h-8V289.34A3.4,3.4,0,0,1,21.53,286H35.94m13.26,0H61a3.4,3.4,0,0,1,3.39,3.39v19.21h-8V290.47H49.27"/><rect class="cls-3" x="0.71" y="308.55" width="81.15" height="9.62"/><path class="cls-2" d="M5.63,318.18H76.94l-5.38,38.48H11Z"/><path class="cls-4" d="M72.44,128.6c-1.41,0-2.55,1.62-2.55,3.62s1.14,3.62,2.55,3.62S75,134.22,75,132.22,73.84,128.6,72.44,128.6Z"/><path class="cls-4" d="M116.23,228.55c-1.41,0-2.55,1.62-2.55,3.62s1.14,3.62,2.55,3.62,2.54-1.62,2.54-3.62S117.63,228.55,116.23,228.55Z"/><path class="cls-2" d="M77.79,152.13c-3.21,0-8.37-6.07-8.37-8.15"/><path class="cls-2" d="M286.45,120.06l4.26-32.65c14.1,5.92,29.11,14.16,33.68-2.19,4.13,7.86,8.26,7.4,12.39,5.93q2.07,14.26,4.13,28.53c3.36-1.22,4.61-7.65,3.49-19.88,13-21.19,10.54-31.25-6.07-31.1.26-7.41-3.78-12.13-16.26-11.62,0-4.25-2.31-6.59-12-2.58L288.9,70.63l-5.55,14.85q-.12,14.19-.25,28.39A7.32,7.32,0,0,0,286.45,120.06Z"/><path class="cls-2" d="M286.45,120.06c1.12,15.5,9.33,22.54,22.84,23.23,17.35.92,30.82-3.17,31.62-23.61"/><path class="cls-2" d="M350.07,272.84c-18.4-.07-47,0-65.43-.1q-.25-34.06-.52-68.14l-24.77-1.55q1.8-12.78,3.61-25.55c.32-7,4-12.22,12.91-14.72l17.55-3.87c1.07-2.67,2.15-5.33,3.22-8,18.28,3,23.26,10.33,23.27,22.66l0,21.74c0,6.46,5.3,5.85,5.11-.37l-1.29-42.74,8.13,4,3.22,6.32,15.1,6.07c6.37,2.3,9.47,6.64,10.33,12.39q.06,12.26.13,24.52s-9.29,3.61-9.68,1.29C350.69,205.09,350.28,253.29,350.07,272.84Z"/><line class="cls-3" x1="300.5" y1="141.67" x2="300.59" y2="151.57"/><line class="cls-3" x1="323.36" y1="142.52" x2="323.75" y2="152.2"/><path class="cls-2" d="M281.32,204.42l-6.81,83.1c6.38,4.91,4.57,9,.74,15.1-1.75,2.78-14.05-.11-15.36-4.37-1.17-3.81-1-8.72-.89-12.13l2.91-82.91"/><line class="cls-3" x1="357.96" y1="206.44" x2="357.32" y2="273.09"/><polyline class="cls-2" points="349.64 311.27 339.43 423.42 320.71 423.81 318.52 304.43 295.55 424.2 276.19 423.42 284.64 272.74"/><path class="cls-2" d="M658.4,311.27l14.74,149.38,24.48.5,1.51-149.88m3.55,0,27.86,150.39,25.32-1-8.38-149.38"/><polyline class="cls-2" points="280.12 423.58 280.83 433.69 293.29 433.75 294.19 424.14"/><polyline class="cls-2" points="322.06 423.78 322.39 433.81 335.81 443.43 340.26 433.43 336 430.98 336.46 423.49"/><path class="cls-2" d="M208.58,85.51c-2.29,18.38-2,34.26,3.31,45.39,1.83-6.46,5-10.76,10.64-11.23l15,.59c5.27.86,8.18,4.45,9.34,10q2.25-5.37,4.49-10.75c.5-8.94.85-17.82,1.18-26.71Z"/><path class="cls-2" d="M202.91,102.29c-6-17.89-2.86-27.69,8.74-30.13C216.9,65.64,223,60,237.77,63.65c15.8,2.08,22.5,11.31,22.22,26A31.47,31.47,0,0,1,256.8,103l-2.25,17.14c.89,7.35-.05,12.7-2.48,16.43-3.53,7.22-9.19,8.59-15.24,8.86a38,38,0,0,1-23.17-2c-9.07-6.23-9.68-14.56-9.1-23.16Z"/><path class="cls-2" d="M217.35,144.73l.39,9.39c14,9.63,24.19,13.91,22.1.83q0-4.89-.08-9.76"/><path class="cls-2" d="M217.54,149.42l-14.72,3c-10.57,2.15-15.84,9.45-17.06,19.84l-4.66,39.88,1.18,51.06,11.46-.59,4.49-6.62,1.42-44.09,3.19-24.58,34.51-7.09,3.2,20.33-40.42,7.65"/><polyline class="cls-2" points="181.22 211.1 170.81 212.86 169.28 193.83 183.57 190.99"/><path class="cls-2" d="M198.23,256c-.31,3.56,1,13.46,5.09,13.48l48.37.31m9.89-103.12c-2.66-9.88-8.11-10.94-9.22-11.43-3.15-1.39-9.42-3.78-12.56-5.17"/><path class="cls-2" d="M183.33,263.15c-.74,4.1-4.73,20.76,2.43,20.9l8.59.17c2.85.06,5.12-5.54,4.08-9.89-.73-3.06-2.52-3.93-4.57-4.5l-.12-7.21"/><path class="cls-2" d="M203.32,269.47l-1.42,24.19m-4.16,71.13-1.87,32,17.73.12,18.43-107,3.9-4.61,1.19,111.63,19,.06,4.05-87.81"/><polyline class="cls-2" points="212.65 396.87 210.64 403.32 199.41 403.26 199.66 396.79"/><polyline class="cls-2" points="199.41 403.26 190.37 415.67 191.95 423.5 214.2 423.5 216.14 416.26 210.64 403.32"/><polyline class="cls-2" points="238.35 396.94 238.24 406.51 241.55 410.94 252.83 405.15 250.23 400.72 250.51 396.98"/><path class="cls-2" d="M238.24,406.51l.32,17h33.9m0-11.42-16.87-7.52-2.78.59"/><path class="cls-2" d="M194.74,278.18l-6.06,24.14m13.46.15-4.07-16.69"/><polygon class="cls-2" points="216.72 302.62 218.5 364.75 159.52 364.79 162.24 302.03 216.72 302.62"/><path class="cls-2" d="M107.76,235.55C92,222.49,98.57,186,129.26,187.62c22.36-15.72,29.34,3.5,25.13,26.42,3.69,13.29-1.77,18.65-7.24,24-.31-4.38.3-9.83,0-14.21-14.07-1-24.72-3.53-29.43-10.24L108,222.42Q107.88,229,107.76,235.55Z"/><path class="cls-2" d="M107.76,235.55c.14,6,1.42,11.65,5,16.46,5.28,5.16,13.82,5.68,23.77,4.19,6.9-2.75,11.39-7.87,10.59-18.16"/><path class="cls-2" d="M119.64,255.89c0,2.61-.08,5.23-.11,7.84,10.25,7.57,16.57,9.28,15.5-.06l.06-7.26"/><path class="cls-2" d="M119.57,260.56c-13.52,1.18-19.36,6.78-22.91,13.69,9.84-1.21,12.78,5.46,14.15,13.93l46.63-7.81c-2.09-8.07-9.33-18.72-22.39-19.07"/><path class="cls-2" d="M161.32,323.32c-3.15-.78-11.28-.69-11.41,3.22,0,1.29-.08,2.58-.13,3.87-.09,2.83,3.89,5.76,6.66,5.1l4.39-1.05"/><path class="cls-2" d="M96.66,274.25l-5.4,6.52c-2.71,3.28-4.07,5.32-4.67,7.57s-.46,4.9-.17,9.29q.92,14,1.84,28.09c.66,10.15,15.08,8.23,15.08,5,0-.9-.23-8.94-.23-8.94l-6.22-3.73q2.08-12.85,4.19-25.7l9.73-4.18"/><path class="cls-2" d="M94.27,333.47l.81,8.47,55.46-8.62m22-35.44L169,278.73l-11.55,1.64"/><polyline class="cls-2" points="108.94 339.79 105.83 404.19 123.48 404.64 130.05 352.58 132.99 349.41 131.41 404.42 147.14 404.19 151.94 334.51"/><polyline class="cls-2" points="118.17 404.51 119.01 408.83 108.71 408.43 108.82 404.27"/><polyline class="cls-2" points="108.71 408.43 102.79 417.15 102.75 424.4 122.29 424.4 122.64 417.88 119.01 408.83"/><polyline class="cls-2" points="134.63 404.37 135.2 411.21 145.55 410.19 143.74 408.15 144.02 404.24"/><polyline class="cls-2" points="135.2 411.21 135.3 424.4 159.29 424.4 158.91 417.94 145.55 410.19"/><path class="cls-2" d="M58.69,115.46C64,118.19,99.1,134,101.18,129.18c1.18-2.75,2.77-8.12,3.12-9.19,11.76-24.24-34.87-43-51.91-18.77-14.74-.35-23.95,48.22-3.1,63.47C52.42,144.13,55.55,136,58.69,115.46Z"/><path class="cls-2" d="M53.79,141.73C66,168.11,101,161.84,101,130.17"/><path class="cls-2" d="M68.53,157.16c-.18,3.58-.37,7.17-.56,10.75-.08,1.54,15,21.09,15.24.38q.08-5.46.14-10.9"/><path class="cls-2" d="M51.47,154.3,68.54,157m14.79,2.35,21.14,3.35-.92-40.4"/><path class="cls-2" d="M68.13,164.82l-17.37,4.29c-16.58,4.72-12.17,22-12.68,35.88L53,207q.46-3.18.91-6.34c8.38,10.58,14.76,19.83,7.86,31.27-6.6,11-8.62,23.22-10.12,35.62l50-.2q-.4-20.62-.82-41.26"/><path class="cls-2" d="M83.24,165.83c7.91,3.72,17.7,5.87,20.35,12.76,2.14,5.57-.67,5.52,3.65,13.58"/><path class="cls-2" d="M38.93,205.1c-1,27-2,57.52-2.92,84.47,0,1.13.22,2.48,1.34,3l4.4,2.06c2.41,1.12,3.49.71,5.24-1.19.62-.66,1.23-1.32,1.84-2l-.18-3.19-.15-2.58q-1.43-3-2.83-6l-1.14-2.41,5.66-70.67m1.48,60.94c-.14,5.73-.28,12.63-.42,18.37m-.15,4.86-.43,17.74m-1.18,48.11-1.11,45.5,10.87-.23,5.82-40.4m7.64-53,2.72-18.9,3.28-1.13-1.08,17-.19,3m-.61,9.63-1.47,23.11-3.89,61.32L83,402l10.75-69"/><polyline class="cls-2" points="48.89 402.14 48.83 408.55 57.77 408.5 58.62 401.94"/><polyline class="cls-2" points="72.93 402.54 72.2 410.87 79.84 413.81 87.14 410.08 83.35 406.46 83.02 402.04"/><polyline class="cls-2" points="48.1 408.61 40.29 419.7 41.08 424.4 61.48 424.4 62.13 418.91 57.77 408.5"/><path class="cls-2" d="M72.2,410.87l-.06,13.53h34.11m-2.67-8.4-15-6.37-1.47.45"/><path class="cls-2" d="M87.37,133.24c0,4.81.38,9.74-.43,14.49-.49,2.89-.91,1.47-6-.8-.29-.13-1.88-.82-2-1.13"/><path class="cls-2" d="M124.67,234.44a30.31,30.31,0,0,0,.28,6.93c.33,1.38.61.7,4-.38.19-.07,1.23-.39,1.28-.55"/><path class="cls-2" d="M321.19,109.15c0,2.73.31,5.52-.33,8.22-.38,1.63-.72.83-4.7-.46-.23-.07-1.47-.46-1.52-.64"/><path class="cls-2" d="M223.94,103.47c0,3.93-.54,8,.59,11.82.69,2.36,1.29,1.2,8.41-.65"/><path class="cls-4" d="M137.85,228.55c-1.41,0-2.55,1.62-2.55,3.62s1.14,3.62,2.55,3.62,2.54-1.62,2.54-3.62S139.25,228.55,137.85,228.55Z"/><path class="cls-2" d="M116.9,240.42c.9,4,4.76,5.21,8.27,5.21"/><path class="cls-2" d="M457.41,132.72c-4.91,21.36-23.69,29.34-41.56,16"/><path class="cls-2" d="M709.43,112.22V124.3M683.24,124v-8.12"/><path class="cls-2" d="M419.05,94.77c-4,46-4.75,80.31.06,103.51-16.62-4.77-39.57-17.94-37.54-39.42q1.17-31.73,2.33-63.43c.85-10.71,4.67-19,18.33-19.21,21.22-25.24,81.32-11.73,58.2,46l-2.91-13.68Z"/><path class="cls-2" d="M417.44,188.18c3,5.13,7.46,7.63,13.6,7.2l15.56-.15c5.74,0,8.09-2.63,5.68-9q-3.06-7.64-6.11-15.28c6.92,2.66,13.84,5.31,16.15,11.5a40,40,0,0,1,.72,8.87c3.46,7,6.13,13.85,3.35,19.5l-9.17,14.26q1,35.06,1.9,70.12l-62.42-.44c2.63-18.14,6.87-35.64,16.3-51.06-1.6-14.18-6.65-24.67-14.26-32.45l-1.17,7-18.76-2.91c3-11.18-1.12-28.19,6.69-36.48"/><polyline class="cls-2" points="437.11 157.75 436.42 168.06 447.07 173.2"/><path class="cls-2" d="M381,215.65q-2.42,52.9-4.82,105.79c-.3,6.48,10,7.94,14.8,7.91,3,0,3.17-12.45,1.37-14.4l-4.64-5,7.68-92"/><path class="cls-2" d="M751.71,183.82,732,228.46c-2.84,6-6.94,9.35-13.76,8.76L681.57,234m-3.75-14,36.86,5.49c5.43-14.06,9.2-29.33,14-41.85"/><path class="cls-2" d="M396.7,294.74c-2,28.05-.09,55.62,1.3,83.26-5.65,21.19-6.29,52.39-6.11,85.26l14.84.87q7.93-70.33,15.86-140.68l7,.29L421.86,463.4l14.55.3c8.68-56.27,19.06-111.73,22.71-168.52"/><path class="cls-2" d="M529.52,405.57H580.3a4.38,4.38,0,0,1,4.36,4.37v26.19H574.41V411.39h-39v24.74H525.16V409.94A4.38,4.38,0,0,1,529.52,405.57Z"/><line class="cls-3" x1="505.24" y1="268.08" x2="458.66" y2="222.83"/><path class="cls-2" d="M457.63,240l47.24,42.54"/><path class="cls-2" d="M441,117.88c0,6.93,3.95,11.44,11.05,11.34,1.4,0-3.54,7.13-10.62,7.13"/><path class="cls-2" d="M427.78,140.89c1.41,3,5.63,5.25,10,4.06"/><path class="cls-4" d="M429.55,115.82c1.81,0,3.27,2.09,3.27,4.66s-1.46,4.65-3.27,4.65-3.27-2.08-3.27-4.65S427.74,115.82,429.55,115.82Z"/><path class="cls-4" d="M452.05,115.82c1.81,0,3.27,2.09,3.27,4.66s-1.46,4.65-3.27,4.65-3.27-2.08-3.27-4.65S450.24,115.82,452.05,115.82Z"/><path class="cls-4" d="M676.4,78.4c1.56,0,2.83,1.8,2.83,4s-1.27,4-2.83,4-2.82-1.79-2.82-4S674.84,78.4,676.4,78.4Z"/><path class="cls-4" d="M701,78.4c1.56,0,2.83,1.8,2.83,4s-1.27,4-2.83,4-2.82-1.79-2.82-4S699.47,78.4,701,78.4Z"/><path class="cls-4" d="M217.51,99.31c1.56,0,2.83,1.8,2.83,4s-1.27,4-2.83,4-2.83-1.8-2.83-4S215.94,99.31,217.51,99.31Z"/><path class="cls-4" d="M241.4,99.31c1.56,0,2.83,1.8,2.83,4s-1.27,4-2.83,4-2.84-1.8-2.84-4S239.83,99.31,241.4,99.31Z"/><path class="cls-4" d="M307.52,105c1.56,0,2.83,1.8,2.83,4s-1.27,4-2.83,4-2.83-1.81-2.83-4S306,105,307.52,105Z"/><path class="cls-4" d="M330.44,105c1.56,0,2.83,1.8,2.83,4s-1.27,4-2.83,4-2.84-1.81-2.84-4S328.87,105,330.44,105Z"/><path class="cls-2" d="M308.8,124c3.82,6.37,16.35,3.06,18.54-1.57"/><path class="cls-2" d="M228.11,133.94c4,1.6,13.44-3.38,14.48-6"/><path class="cls-2" d="M728,180.1h27l-2.91-26.34c-1.29-8.65-6.46-14.67-15.71-17.89l-20.51-5-3.49-8.73L690.51,137.9l-11.27-14-1.6,10.18-24.15,7.42c-6.62,3.4-10,11.1-10.47,22.84l-1.32,16.91m14.17,89.54q.27,5.75.53,11.49"/><path class="cls-2" d="M663.24,183.38c-.2-19.59-.44-39.26,5.13-46.41l9.27-2.85c-4.22,3.55-4.16,27.39-3.7,53.18L704.2,187c1.91-18.84,4.54-37.63,11.71-56.09l9,2.18c-6.14,13.07-8.74,34.16-10.12,58-.36,6.15,1,10.46,3.35,13.32m26.48,5.51,1.65,72.39"/><path class="cls-5" d="M543.17,268.37h26.64a5.25,5.25,0,0,1,5.24,5.23v8.72H537.93V273.6A5.25,5.25,0,0,1,543.17,268.37Z"/><path class="cls-2" d="M602.27,269.59H591.36c-6.2,0-12.64-5.08-14.3-11.28l-17.61-65.74c-1.67-6.2,2-11.28,8.25-11.28h79.92c6.21,0,12.64,5.08,14.3,11.28l5.76,21.48,5.15,19.22,6.71,25c1.66,6.2-2,11.28-8.26,11.28H643.37"/><path class="cls-2" d="M576.24,181.29h79.92c6.2,0,12.64,5.08,14.3,11.28l6.35,23.71L681.57,234l6.5,24.28c1.67,6.2-2.05,11.28-8.25,11.28H669"/><rect class="cls-3" x="607.82" y="228.66" width="31.42" height="53.66"/><path class="cls-1" d="M577.05,107.59c1.79-.06,3.59.33,4.06,2,.39,1.4-.52,2.56-1.6,3.32a14.71,14.71,0,0,1-3.59,1.68A52.18,52.18,0,0,1,563,116.85l-1.31,1.78-1.32-1.78a52.34,52.34,0,0,1-12.91-2.21,14.88,14.88,0,0,1-3.59-1.68,3.14,3.14,0,0,1-1.6-3.32c.48-1.72,2.28-2.11,4.06-2-.73-.61-1.44-1.22-2.12-1.86-1.74-1.62-5.83-5.69-3.65-8.31,2-2.45,6.32.32,8.2,1.64.36.25.72.52,1.07.79-.45-1-.86-2-1.22-3-.82-2.28-2.55-7.61.52-9,3.28-1.49,6.4,4.05,7.56,6.26.16.3.32.6.47.91,0-.88,0-1.76.08-2.62.15-2.58.7-9.34,4.45-9.34s4.3,6.76,4.45,9.34c.05.86.07,1.74.08,2.62.15-.31.31-.61.46-.91,1.17-2.21,4.28-7.75,7.56-6.26,3.08,1.41,1.35,6.75.53,9-.37,1-.78,2-1.23,3l1.07-.79c1.88-1.32,6.16-4.09,8.21-1.64,2.18,2.62-1.91,6.69-3.66,8.31C578.5,106.37,577.79,107,577.05,107.59Z"/><path class="cls-1" d="M541.62,118.63h40.16a2.77,2.77,0,0,1,2.76,2.76h0a2.77,2.77,0,0,1-2.76,2.76H541.62a2.77,2.77,0,0,1-2.76-2.76h0A2.77,2.77,0,0,1,541.62,118.63Z"/><path class="cls-1" d="M579.87,124.15v19.78a5.73,5.73,0,0,1-5.72,5.72H549.24a5.74,5.74,0,0,1-5.72-5.72V124.15"/><path class="cls-2" d="M514.88,263.86l8.42-15.7a4.22,4.22,0,0,1,3.27-2.13h15.72c1.17,0,1.62,1,1,2.13l-19.27,36a4.21,4.21,0,0,1-3.28,2.13H505c-1.18,0-1.62-.95-1-2.13l5.05-9.43"/><rect class="cls-3" x="813.33" y="155.16" width="92.24" height="36.08"/><rect class="cls-3" x="813.33" y="155.16" width="13.97" height="36.08"/><rect class="cls-3" x="833.99" y="162.44" width="64.31" height="21.53"/><rect class="cls-6" x="844.02" y="168.69" width="20.37" height="9.02"/><rect class="cls-6" x="872.39" y="168.69" width="8.58" height="9.02"/><polyline class="cls-2" points="905.57 282.32 827.29 282.32 827.29 211.76 905.57 211.76 905.57 239.9"/><rect class="cls-3" x="858.72" y="191.25" width="15.42" height="20.51"/><path class="cls-2" d="M870.36,211.76H809.54a16.92,16.92,0,0,0-16.87,16.88v10.87l-14.59,8.42c-8.78,5.07-16,18.8-16,30.51v3.88H887.23"/><path class="cls-1" d="M1016.3,57.44H786.09a4.54,4.54,0,0,1-4.52-4.53V47.66a4.54,4.54,0,0,1,4.52-4.53H1016.3"/><path class="cls-2" d="M541.48,237.89q1.69-3.78,3.41-7.56"/><path class="cls-2" d="M527,237.89q-1.71-3.78-3.41-7.56"/><path class="cls-2" d="M553.57,246.47l7.2-5.1"/><path class="cls-2" d="M514.86,246.47l-7.2-5.1"/><rect class="cls-6" x="892" y="117.16" width="77.03" height="32.49"/><rect class="cls-6" x="817.05" y="10.64" width="77.03" height="32.49"/><rect class="cls-6" x="813.42" y="0.71" width="84.3" height="9.93"/><rect class="cls-3" x="892" y="427.6" width="77.03" height="32.49"/><rect class="cls-3" x="888.37" y="417.67" width="84.3" height="9.93"/><rect class="cls-3" x="892" y="385.18" width="77.03" height="32.49"/><rect class="cls-3" x="888.37" y="375.25" width="84.3" height="9.93"/><rect class="cls-3" x="798.4" y="427.6" width="77.03" height="32.49"/><rect class="cls-3" x="873.38" y="249.83" width="77.03" height="32.49"/><rect class="cls-3" x="794.77" y="417.67" width="84.3" height="9.93"/><rect class="cls-3" x="869.75" y="239.9" width="84.3" height="9.93"/><path class="cls-2" d="M716.85,87.9c-1.7.17,7.19-14.44.23-14.44s-23.37-4.26-32.15-11.37c-4.69,3.79-7.25,6.78-13.09,8.73a27.81,27.81,0,0,0-3.2,17.4c-15.09-8.35-35.23-33-11.16-31-6.26-8.88-9.35-16.17-5.39-21.33C662.79,22,709.44,26,727,42.57,739.14,54,738.84,92.2,716.85,87.9Z"/><path class="cls-2" d="M722.42,91.3c-4.3,17.24-21.74,31-38.14,24.13-10-4.17-14.54-17.88-15.64-27.21"/><path class="cls-2" d="M684.31,78.16c.05,3.12-5.82,17.24-8.2,19.6-.31.31,5.25.82,6.31.91"/><path class="cls-2" d="M684,104.1c2,4.58,15.13,2.5,24.1-8"/><rect class="cls-6" x="888.37" y="107.23" width="84.3" height="9.93"/><rect class="cls-3" x="989.36" y="427.6" width="30.36" height="32.49"/><rect class="cls-3" x="985.73" y="417.67" width="34" height="9.93"/><rect class="cls-3" x="989.36" y="385.18" width="30.36" height="32.49"/><rect class="cls-3" x="985.73" y="375.25" width="34" height="9.93"/><rect class="cls-3" x="989.36" y="342.75" width="30.36" height="32.49"/><rect class="cls-3" x="985.73" y="332.82" width="34" height="9.93"/><path class="cls-2" d="M181.82,280.31l-5.5,21.88m13.4.14-3.95-16.21"/><path class="cls-2" d="M464.07,282.32h33m28.78,0h495m0,28.95H463.75m-93.4,0h-25a9.18,9.18,0,0,1-9.16-9.16V291.48a9.18,9.18,0,0,1,9.16-9.16H378m12.05,0h8.77"/><path class="cls-2" d="M505.24,268.08c3.82,0,8.76-.16,13.09-2a1.45,1.45,0,0,1,2,1.13c.63,4-9.49,6.56-11.88,7.29"/><polyline class="cls-2" points="750.72 460.85 749.78 474.07 733.49 474.15 732.32 461.59"/><polyline class="cls-2" points="280.83 433.69 272.12 444.4 273.15 451.24 297.87 451.82 299.09 445.3 293.29 433.75"/><polyline class="cls-2" points="749.78 474.07 761.18 488.08 758.83 497.96 727.21 497.96 725.9 489.26 733.49 474.15"/><polyline class="cls-2" points="695.85 461.12 695.43 474.24 677.87 486.81 672.04 473.73 677.62 470.52 677.02 460.73"/><path class="cls-2" d="M322.39,433.81l.05,9.45c0,5.42,1.52,8.69,7.15,8.69H370l1.05-4.13-30.79-14.39"/><polyline class="cls-2" points="695.43 474.24 695.34 491.04 691.12 497.96 633.15 497.96 631.78 492.56 672.04 473.73"/><polyline class="cls-2" points="392.39 463.29 392.69 472.5 405.79 472.21 405.19 464.04"/><polyline class="cls-2" points="392.69 472.5 382.22 487.63 382.36 491.34 409.57 490.9 409.86 486.32 405.79 472.21"/><polyline class="cls-2" points="382.36 491.34 382.14 498.25 409.64 498.54 409.57 490.9"/><path class="cls-2" d="M423.1,463.84l-.36,11.2c6.37,4.14,12.75,4.3,19.13-1.45a16.88,16.88,0,0,1-6.48-9.92"/><path class="cls-2" d="M422.74,475q.15,7.75.32,15.5l45.54.07c-5.5-7.09-15.6-12.27-26.73-17"/><polyline class="cls-7" points="423.06 490.54 422.77 498.1 469.11 497.96 468.6 490.61"/><rect class="cls-3" x="502.75" y="436.13" width="104.31" height="12.37"/><polygon class="cls-2" points="509.08 448.49 545.89 448.49 563.93 448.49 600.74 448.49 593.83 497.96 570.84 497.96 538.98 497.96 515.99 497.96 509.08 448.49"/></g></g></svg>