<svg xmlns="http://www.w3.org/2000/svg" viewBox="0 0 117.13 23.5"><defs><style>.cls-1{fill:#fff;fill-rule:evenodd;}</style></defs><title>Recurso 1</title><g id="Capa_2" data-name="Capa 2"><g id="Layer_1" data-name="Layer 1"><path class="cls-1" d="M55.89,8.72v.41a5.89,5.89,0,0,0-4-2h-.37a6.6,6.6,0,0,0-4.74,2,6.88,6.88,0,0,0,0,9.64,6.6,6.6,0,0,0,4.74,2h.37a5.89,5.89,0,0,0,4-2v.41a1.4,1.4,0,1,0,2.8,0V8.72a1.4,1.4,0,1,0-2.8,0Zm-4,.95a3.85,3.85,0,0,1,2.73,1.19,4.55,4.55,0,0,1,0,6.22,3.85,3.85,0,0,1-2.73,1.19,4.41,4.41,0,0,1-3-1.19,4.26,4.26,0,0,1,0-6.22A4.41,4.41,0,0,1,51.88,9.67Z"/><path class="cls-1" d="M96.1,7.15a6.83,6.83,0,1,0,4.82,2,6.75,6.75,0,0,0-4.82-2ZM93.17,11A4.13,4.13,0,1,1,92,14,4.13,4.13,0,0,1,93.17,11Z"/><path class="cls-1" d="M39.39,9.34v-.6a1.4,1.4,0,1,0-2.8,0V19.22a1.4,1.4,0,0,0,2.8,0V9.34Z"/><path class="cls-1" d="M67.5,7.15a6.82,6.82,0,0,0,0,13.64,6.65,6.65,0,0,0,2.31-.41,6.52,6.52,0,0,0,2-1.16,1.33,1.33,0,1,0-1.7-2,4.38,4.38,0,0,1-1.24.71,4.25,4.25,0,0,1-1.41.24,4.15,4.15,0,0,1,0-8.3,4.25,4.25,0,0,1,1.41.24,4.19,4.19,0,0,1,1.24.72,1.34,1.34,0,0,0,1.7-2.06,6.72,6.72,0,0,0-2-1.16A6.65,6.65,0,0,0,67.5,7.15Z"/><path class="cls-1" d="M74.79,7.32a1.13,1.13,0,1,0,0,2.25h.54V16a4.47,4.47,0,0,0,1.27,3.34,4.18,4.18,0,0,0,3.05,1.24A4.5,4.5,0,0,0,81.88,20c1.17-.65.38-2.73-1-2.05a1.87,1.87,0,0,1-.86.2,1.77,1.77,0,0,1-1.4-.56,2.2,2.2,0,0,1-.5-1.51V9.57h2.48a1.13,1.13,0,0,0,0-2.25H78.13V4.55a1.4,1.4,0,1,0-2.8,0V7.32Z"/><path class="cls-1" d="M84.43,8.72v10.5a1.4,1.4,0,1,0,2.8,0V8.72a1.4,1.4,0,0,0-2.8,0Z"/><path class="cls-1" d="M84.61,4.67a1.74,1.74,0,0,0,2.5,0,1.69,1.69,0,0,0,.52-1.25,1.71,1.71,0,0,0-.52-1.25,1.76,1.76,0,0,0-2.5,0,1.74,1.74,0,0,0,0,2.5Z"/><path class="cls-1" d="M109.54,7.82a5,5,0,0,0-1.86,1.93v-1a1.4,1.4,0,1,0-2.8,0v10.5a1.4,1.4,0,0,0,2.8,0v-5.8a3.57,3.57,0,0,1,1.08-2.81,3.66,3.66,0,0,1,2.52-1q3,0,3,3.67v2.22h0v3.68a1.4,1.4,0,0,0,2.8,0V12.47a5.32,5.32,0,0,0-1.39-4,4.91,4.91,0,0,0-3.63-1.38A5,5,0,0,0,109.54,7.82Z"/><path class="cls-1" d="M34.43,12.06a1.36,1.36,0,0,0-1.36-1.36H26.68V5.9H34a1.38,1.38,0,1,0,0-2.75H25.11a1.48,1.48,0,0,0-1.38,1.47V19.15a1.48,1.48,0,0,0,2.95,0V13.42h6.39A1.36,1.36,0,0,0,34.43,12.06Z"/><path class="cls-1" d="M15,22a1.47,1.47,0,0,1-1.47,1.48,1.56,1.56,0,0,1-.83-.25L.83,16.41A1.47,1.47,0,0,1,0,15.09V8.4A1.47,1.47,0,0,1,.83,7.08L12.74.2a1.47,1.47,0,0,1,1.48,2.54L4.41,8.4l2.86,1.65,5.49-3.17a1.46,1.46,0,1,1,1.46,2.54l-4,2.32L14.13,14A1.48,1.48,0,0,1,15,15.34V22ZM3,14.24,12,19.48v-3.3L3,11Z"/><path class="cls-1" d="M41.88,7.83,38.17,10l-.94,3.54,1.52-.89L39.81,12l3.37-1.95.48-.28a1.29,1.29,0,0,0-1.3-2.24Z"/></g></g></svg>