<svg xmlns="http://www.w3.org/2000/svg" viewBox="0 0 14.91 23.42"><defs><style>.cls-1{fill:#fff;fill-rule:evenodd;}</style></defs><title>Recurso 1</title><g id="Capa_2" data-name="Capa 2"><g id="Layer_1" data-name="Layer 1"><path class="cls-1" d="M14.91,22a1.47,1.47,0,0,1-1.47,1.47,1.52,1.52,0,0,1-.82-.25L.83,16.36A1.47,1.47,0,0,1,0,15V8.37A1.47,1.47,0,0,1,.83,7.05L12.7.2a1.46,1.46,0,0,1,1.47,2.53L4.4,8.37,7.24,10l5.47-3.16a1.46,1.46,0,1,1,1.46,2.53l-4,2.31L14.08,14a1.47,1.47,0,0,1,.83,1.32V22Zm-12-7.76,9,5.22V16.13l-9-5.22Z"/></g></g></svg>