<svg xmlns="http://www.w3.org/2000/svg" viewBox="0 0 525.76 652.9"><defs><style>.cls-1,.cls-5,.cls-6{fill:none;}.cls-1,.cls-6{stroke:#fff;}.cls-1,.cls-2,.cls-3,.cls-5{stroke-linecap:round;stroke-linejoin:round;}.cls-1,.cls-2,.cls-3,.cls-5,.cls-6{stroke-width:2.13px;}.cls-2,.cls-3{fill:#fff;}.cls-2,.cls-3,.cls-5{stroke:#fd2f05;}.cls-3,.cls-4,.cls-5{fill-rule:evenodd;}.cls-4{fill:#fd2f05;}.cls-6{stroke-miterlimit:22.93;}</style></defs><title>Recurso 5</title><g id="Capa_2" data-name="Capa 2"><g id="Layer_1" data-name="Layer 1"><line class="cls-1" x1="398.17" y1="130.61" x2="457.58" y2="51.47"/><line class="cls-1" x1="127.59" y1="130.61" x2="68.18" y2="51.47"/><line class="cls-1" x1="262.88" y1="100.02" x2="262.94" y2="1.06"/><line class="cls-1" x1="429.13" y1="225.26" x2="524.7" y2="199.59"/><rect class="cls-2" x="106.08" y="449.85" width="243.73" height="201.99" rx="51.75"/><path class="cls-3" d="M157,157.62H368.76a13.73,13.73,0,0,1,13.7,13.7V586a13.73,13.73,0,0,1-13.7,13.69H157A13.74,13.74,0,0,1,143.3,586V171.32A13.74,13.74,0,0,1,157,157.62Z"/><path class="cls-3" d="M370.46,506.44h22.32a32.73,32.73,0,1,1,0,65.45H370.46a32.73,32.73,0,0,1,0-65.45Z"/><path class="cls-3" d="M262.88,534.83a20,20,0,1,1-20,20A20,20,0,0,1,262.88,534.83Z"/><path class="cls-3" d="M390,539.16c0,11.58-14,21-31.21,21V518.19C376,518.19,390,527.58,390,539.16Z"/><path class="cls-3" d="M381.46,430.16h22.31a32.73,32.73,0,1,1,0,65.45H381.46a32.73,32.73,0,1,1,0-65.45Z"/><path class="cls-3" d="M401,462.89c0,11.58-14,21-31.21,21V441.92C387,441.92,401,451.31,401,462.89Z"/><path class="cls-3" d="M366.59,360.85l19.33-11.16a32.72,32.72,0,1,1,32.72,56.68l-19.33,11.16a32.72,32.72,0,0,1-32.72-56.68Z"/><path class="cls-3" d="M399.88,379.42c5.79,10-1.61,25.14-16.54,33.76l-21-36.32C377.3,368.24,394.09,369.39,399.88,379.42Z"/><path class="cls-3" d="M366.59,264.78l19.33-11.16a32.72,32.72,0,1,1,32.72,56.68l-19.33,11.16a32.72,32.72,0,0,1-32.72-56.68Z"/><path class="cls-3" d="M399.88,283.35c5.79,10-1.61,25.14-16.54,33.76l-21-36.32C377.3,272.17,394.09,273.32,399.88,283.35Z"/><path class="cls-4" d="M231.4,207.33a5.89,5.89,0,0,1-11.78,0h-6.91a5.89,5.89,0,0,1-11.78,0H194a5.89,5.89,0,0,1-5.89,5.89v192a5.89,5.89,0,0,1,0,11.78v63.62A5.89,5.89,0,0,1,194,486.5h6.9a5.89,5.89,0,0,1,11.78,0h6.91a5.89,5.89,0,0,1,11.78,0h6.9a5.9,5.9,0,0,1,11.79,0H257a5.89,5.89,0,0,1,11.78,0h6.91a5.89,5.89,0,0,1,11.78,0h6.9a5.89,5.89,0,0,1,11.78,0h6.91a5.89,5.89,0,0,1,11.78,0h6.9a5.89,5.89,0,0,1,5.9-5.89V417a5.89,5.89,0,1,1,0-11.78v-192a5.9,5.9,0,0,1-5.9-5.89h-6.9a5.89,5.89,0,0,1-11.78,0h-6.91a5.89,5.89,0,1,1-11.78,0h-6.9a5.89,5.89,0,0,1-11.78,0h-6.91a5.89,5.89,0,1,1-11.78,0h-6.9a5.9,5.9,0,0,1-11.79,0ZM200.93,411.1a5.89,5.89,0,1,1,5.89,5.89,5.89,5.89,0,0,1-5.89-5.89Zm18.69,0a5.89,5.89,0,1,1,5.89,5.89,5.89,5.89,0,0,1-5.89-5.89Zm18.68,0a5.9,5.9,0,1,1,5.9,5.89,5.9,5.9,0,0,1-5.9-5.89Zm18.69,0a5.89,5.89,0,1,1,5.89,5.89A5.89,5.89,0,0,1,257,411.1Zm18.69,0a5.89,5.89,0,1,1,5.89,5.89,5.89,5.89,0,0,1-5.89-5.89Zm18.68,0a5.89,5.89,0,1,1,5.89,5.89,5.89,5.89,0,0,1-5.89-5.89Zm18.69,0a5.89,5.89,0,1,1,5.89,5.89A5.89,5.89,0,0,1,313.05,411.1Z"/><path class="cls-3" d="M87.27,423.78a28.7,28.7,0,0,1,8.91-8l83.33-48.11,14.44,25a29,29,0,0,1-10.57,39.48L143.3,455.26v94.4a37.22,37.22,0,0,1-74.44,0V463.41A52,52,0,0,1,87.27,423.78Z"/><path class="cls-5" d="M179.51,367.63,190,385.79c-14.92,8.62-31.72,7.47-37.51-2.56"/><circle class="cls-6" cx="262.11" cy="296.1" r="40.06" transform="translate(-127.56 363.4) rotate(-58.28)"/><line class="cls-1" x1="261.86" y1="311.88" x2="241.47" y2="284.71"/><line class="cls-1" x1="261.86" y1="311.88" x2="321.27" y2="232.74"/><line class="cls-1" x1="96.63" y1="225.26" x2="1.06" y2="199.59"/></g></g></svg>