<svg xmlns="http://www.w3.org/2000/svg" viewBox="0 0 273.32 392.73"><defs><style>.cls-1,.cls-2{fill:none;stroke:#fff;stroke-linecap:round;stroke-linejoin:round;fill-rule:evenodd;}.cls-1{stroke-width:2.83px;}.cls-2{stroke-width:1.42px;}</style></defs><title>Recurso 3</title><g id="Capa_2" data-name="Capa 2"><g id="Layer_1" data-name="Layer 1"><path class="cls-1" d="M200.92,59q17.45,3.7,26.77,14.7T237,100.37A44.24,44.24,0,0,1,230.29,124q-6.71,10.89-20.45,17.58t-34,6.68a118.53,118.53,0,0,1-29.38-3.7,85.62,85.62,0,0,1-25.16-10.49l14.44-30.64a64.07,64.07,0,0,0,18.54,8.85,71.11,71.11,0,0,0,20.35,3.08q10.23,0,16.25-3.91a12.47,12.47,0,0,0,6-11.1q0-14-21.45-14H158.81V60.68l25.07-27.76H128.54V1.46H230V27Z"/><path class="cls-1" d="M81,59q17.45,3.7,26.77,14.7t9.32,26.63A44.24,44.24,0,0,1,110.39,124q-6.72,10.89-20.45,17.58t-34,6.68a118.45,118.45,0,0,1-29.37-3.7A85.62,85.62,0,0,1,1.42,134.09l14.43-30.64A64.13,64.13,0,0,0,34.4,112.3a71.06,71.06,0,0,0,20.35,3.08q10.23,0,16.24-3.91a12.48,12.48,0,0,0,6-11.1q0-14-21.46-14H38.91V60.68L64,32.92H8.64V1.46H110.09V27Z"/><path class="cls-2" d="M263,23.18V19.75a3.87,3.87,0,0,1,3.86-3.86h1.86a3.87,3.87,0,0,1,3.86,3.86v3.43"/><path class="cls-2" d="M240.53,8.6V5.17a3.88,3.88,0,0,1,3.86-3.86h1.86a3.87,3.87,0,0,1,3.85,3.86V8.6"/><path class="cls-2" d="M240.53,8.6V12a3.88,3.88,0,0,0,3.86,3.86h1.86A3.87,3.87,0,0,0,250.1,12V8.6"/><path class="cls-2" d="M263,23.18v3.43a3.88,3.88,0,0,0,3.86,3.86h1.86a3.88,3.88,0,0,0,3.86-3.86V23.18"/><path class="cls-2" d="M265.21.71l-40.41,70m-44.75,77.52L39.28,392"/></g></g></svg>