<svg xmlns="http://www.w3.org/2000/svg" viewBox="0 0 87.93 48.17"><defs><style>.cls-1,.cls-2,.cls-3{fill:none;stroke:#fff;stroke-linecap:round;stroke-linejoin:round;}.cls-1{stroke-width:1.13px;}.cls-1,.cls-2{fill-rule:evenodd;}.cls-2,.cls-3{stroke-width:1.13px;}</style></defs><title>Recurso 1</title><g id="Capa_2" data-name="Capa 2"><g id="Layer_1" data-name="Layer 1"><path class="cls-1" d="M64.42,19A14.85,14.85,0,0,1,73,23.75a12.74,12.74,0,0,1,3,8.52,14.21,14.21,0,0,1-2.15,7.57,15.2,15.2,0,0,1-6.55,5.63A24.8,24.8,0,0,1,56.4,47.61,37.91,37.91,0,0,1,47,46.42a27.64,27.64,0,0,1-8.06-3.35l4.62-9.81a20.63,20.63,0,0,0,5.94,2.83,22.57,22.57,0,0,0,6.51,1,9.48,9.48,0,0,0,5.2-1.25,4,4,0,0,0,1.93-3.56q0-4.47-6.87-4.47H50.94V19.57l8-8.88H41.25V.62H73.72V8.78Z"/><path class="cls-2" d="M26,19a14.82,14.82,0,0,1,8.57,4.71,12.74,12.74,0,0,1,3,8.52,14.12,14.12,0,0,1-2.15,7.57,15.23,15.23,0,0,1-6.54,5.63A24.85,24.85,0,0,1,18,47.61a38,38,0,0,1-9.4-1.19,27.58,27.58,0,0,1-8-3.35l4.62-9.81a20.45,20.45,0,0,0,5.93,2.83,22.69,22.69,0,0,0,6.52,1,9.44,9.44,0,0,0,5.19-1.25,4,4,0,0,0,1.93-3.56q0-4.47-6.87-4.47H12.57V19.57l8-8.88H2.88V.62H35.35V8.78Z"/><path class="cls-2" d="M84.3,7.57V6.47a1.24,1.24,0,0,1,1.23-1.24h.6a1.24,1.24,0,0,1,1.23,1.24v1.1"/><path class="cls-2" d="M77.1,2.9V1.8A1.23,1.23,0,0,1,78.33.57h.6A1.23,1.23,0,0,1,80.16,1.8V2.9"/><path class="cls-2" d="M77.1,2.9V4a1.23,1.23,0,0,0,1.23,1.23h.6A1.23,1.23,0,0,0,80.16,4V2.9"/><path class="cls-2" d="M84.3,7.57V8.66A1.24,1.24,0,0,0,85.53,9.9h.6a1.24,1.24,0,0,0,1.23-1.24V7.57"/><line class="cls-3" x1="84.85" y1="0.62" x2="79.5" y2="9.9"/></g></g></svg>